<svg width="1920" height="1080" viewBox="0 0 1920 1080" xmlns="http://www.w3.org/2000/svg">
  <defs>
    <linearGradient id="bg" x1="0%" y1="0%" x2="100%" y2="100%">
      <stop offset="0%" style="stop-color:#1a1a1a;stop-opacity:1" />
      <stop offset="50%" style="stop-color:#2d2d2d;stop-opacity:1" />
      <stop offset="100%" style="stop-color:#0a0a0a;stop-opacity:1" />
    </linearGradient>
    <pattern id="noise" patternUnits="userSpaceOnUse" width="100" height="100">
      <rect width="100" height="100" fill="#1a1a1a"/>
      <circle cx="20" cy="20" r="1" fill="#333" opacity="0.3"/>
      <circle cx="60" cy="40" r="0.5" fill="#444" opacity="0.2"/>
      <circle cx="80" cy="80" r="1.5" fill="#222" opacity="0.4"/>
      <circle cx="40" cy="70" r="0.8" fill="#555" opacity="0.1"/>
    </pattern>
  </defs>
  
  <!-- Background -->
  <rect width="1920" height="1080" fill="url(#bg)"/>
  
  <!-- Noise overlay -->
  <rect width="1920" height="1080" fill="url(#noise)"/>
  
  <!-- Cinematic elements -->
  <rect x="0" y="0" width="1920" height="4" fill="#ff6b6b" opacity="0.8"/>
  <rect x="0" y="1076" width="1920" height="4" fill="#ff6b6b" opacity="0.8"/>
  
  <!-- Film strip effect -->
  <rect x="0" y="200" width="1920" height="20" fill="#000" opacity="0.3"/>
  <rect x="0" y="860" width="1920" height="20" fill="#000" opacity="0.3"/>
  
  <!-- Perforations -->
  <g fill="#333" opacity="0.6">
    <rect x="20" y="200" width="8" height="20"/>
    <rect x="40" y="200" width="8" height="20"/>
    <rect x="60" y="200" width="8" height="20"/>
    <rect x="80" y="200" width="8" height="20"/>
    <rect x="100" y="200" width="8" height="20"/>
    <rect x="120" y="200" width="8" height="20"/>
    <rect x="140" y="200" width="8" height="20"/>
    <rect x="160" y="200" width="8" height="20"/>
    <rect x="180" y="200" width="8" height="20"/>
    <rect x="200" y="200" width="8" height="20"/>
    <rect x="220" y="200" width="8" height="20"/>
    <rect x="240" y="200" width="8" height="20"/>
    <rect x="260" y="200" width="8" height="20"/>
    <rect x="280" y="200" width="8" height="20"/>
    <rect x="300" y="200" width="8" height="20"/>
    <rect x="320" y="200" width="8" height="20"/>
    <rect x="340" y="200" width="8" height="20"/>
    <rect x="360" y="200" width="8" height="20"/>
    <rect x="380" y="200" width="8" height="20"/>
    <rect x="400" y="200" width="8" height="20"/>
    <rect x="420" y="200" width="8" height="20"/>
    <rect x="440" y="200" width="8" height="20"/>
    <rect x="460" y="200" width="8" height="20"/>
    <rect x="480" y="200" width="8" height="20"/>
    <rect x="500" y="200" width="8" height="20"/>
    <rect x="520" y="200" width="8" height="20"/>
    <rect x="540" y="200" width="8" height="20"/>
    <rect x="560" y="200" width="8" height="20"/>
    <rect x="580" y="200" width="8" height="20"/>
    <rect x="600" y="200" width="8" height="20"/>
    <rect x="620" y="200" width="8" height="20"/>
    <rect x="640" y="200" width="8" height="20"/>
    <rect x="660" y="200" width="8" height="20"/>
    <rect x="680" y="200" width="8" height="20"/>
    <rect x="700" y="200" width="8" height="20"/>
    <rect x="720" y="200" width="8" height="20"/>
    <rect x="740" y="200" width="8" height="20"/>
    <rect x="760" y="200" width="8" height="20"/>
    <rect x="780" y="200" width="8" height="20"/>
    <rect x="800" y="200" width="8" height="20"/>
    <rect x="820" y="200" width="8" height="20"/>
    <rect x="840" y="200" width="8" height="20"/>
    <rect x="860" y="200" width="8" height="20"/>
    <rect x="880" y="200" width="8" height="20"/>
    <rect x="900" y="200" width="8" height="20"/>
    <rect x="920" y="200" width="8" height="20"/>
    <rect x="940" y="200" width="8" height="20"/>
    <rect x="960" y="200" width="8" height="20"/>
    <rect x="980" y="200" width="8" height="20"/>
    <rect x="1000" y="200" width="8" height="20"/>
    <rect x="1020" y="200" width="8" height="20"/>
    <rect x="1040" y="200" width="8" height="20"/>
    <rect x="1060" y="200" width="8" height="20"/>
    <rect x="1080" y="200" width="8" height="20"/>
    <rect x="1100" y="200" width="8" height="20"/>
    <rect x="1120" y="200" width="8" height="20"/>
    <rect x="1140" y="200" width="8" height="20"/>
    <rect x="1160" y="200" width="8" height="20"/>
    <rect x="1180" y="200" width="8" height="20"/>
    <rect x="1200" y="200" width="8" height="20"/>
    <rect x="1220" y="200" width="8" height="20"/>
    <rect x="1240" y="200" width="8" height="20"/>
    <rect x="1260" y="200" width="8" height="20"/>
    <rect x="1280" y="200" width="8" height="20"/>
    <rect x="1300" y="200" width="8" height="20"/>
    <rect x="1320" y="200" width="8" height="20"/>
    <rect x="1340" y="200" width="8" height="20"/>
    <rect x="1360" y="200" width="8" height="20"/>
    <rect x="1380" y="200" width="8" height="20"/>
    <rect x="1400" y="200" width="8" height="20"/>
    <rect x="1420" y="200" width="8" height="20"/>
    <rect x="1440" y="200" width="8" height="20"/>
    <rect x="1460" y="200" width="8" height="20"/>
    <rect x="1480" y="200" width="8" height="20"/>
    <rect x="1500" y="200" width="8" height="20"/>
    <rect x="1520" y="200" width="8" height="20"/>
    <rect x="1540" y="200" width="8" height="20"/>
    <rect x="1560" y="200" width="8" height="20"/>
    <rect x="1580" y="200" width="8" height="20"/>
    <rect x="1600" y="200" width="8" height="20"/>
    <rect x="1620" y="200" width="8" height="20"/>
    <rect x="1640" y="200" width="8" height="20"/>
    <rect x="1660" y="200" width="8" height="20"/>
    <rect x="1680" y="200" width="8" height="20"/>
    <rect x="1700" y="200" width="8" height="20"/>
    <rect x="1720" y="200" width="8" height="20"/>
    <rect x="1740" y="200" width="8" height="20"/>
    <rect x="1760" y="200" width="8" height="20"/>
    <rect x="1780" y="200" width="8" height="20"/>
    <rect x="1800" y="200" width="8" height="20"/>
    <rect x="1820" y="200" width="8" height="20"/>
    <rect x="1840" y="200" width="8" height="20"/>
    <rect x="1860" y="200" width="8" height="20"/>
    <rect x="1880" y="200" width="8" height="20"/>
    <rect x="1900" y="200" width="8" height="20"/>
  </g>
  
  <!-- Repeat for bottom strip -->
  <g fill="#333" opacity="0.6">
    <rect x="20" y="860" width="8" height="20"/>
    <rect x="40" y="860" width="8" height="20"/>
    <rect x="60" y="860" width="8" height="20"/>
    <rect x="80" y="860" width="8" height="20"/>
    <rect x="100" y="860" width="8" height="20"/>
    <rect x="120" y="860" width="8" height="20"/>
    <rect x="140" y="860" width="8" height="20"/>
    <rect x="160" y="860" width="8" height="20"/>
    <rect x="180" y="860" width="8" height="20"/>
    <rect x="200" y="860" width="8" height="20"/>
    <rect x="220" y="860" width="8" height="20"/>
    <rect x="240" y="860" width="8" height="20"/>
    <rect x="260" y="860" width="8" height="20"/>
    <rect x="280" y="860" width="8" height="20"/>
    <rect x="300" y="860" width="8" height="20"/>
    <rect x="320" y="860" width="8" height="20"/>
    <rect x="340" y="860" width="8" height="20"/>
    <rect x="360" y="860" width="8" height="20"/>
    <rect x="380" y="860" width="8" height="20"/>
    <rect x="400" y="860" width="8" height="20"/>
    <rect x="420" y="860" width="8" height="20"/>
    <rect x="440" y="860" width="8" height="20"/>
    <rect x="460" y="860" width="8" height="20"/>
    <rect x="480" y="860" width="8" height="20"/>
    <rect x="500" y="860" width="8" height="20"/>
    <rect x="520" y="860" width="8" height="20"/>
    <rect x="540" y="860" width="8" height="20"/>
    <rect x="560" y="860" width="8" height="20"/>
    <rect x="580" y="860" width="8" height="20"/>
    <rect x="600" y="860" width="8" height="20"/>
    <rect x="620" y="860" width="8" height="20"/>
    <rect x="640" y="860" width="8" height="20"/>
    <rect x="660" y="860" width="8" height="20"/>
    <rect x="680" y="860" width="8" height="20"/>
    <rect x="700" y="860" width="8" height="20"/>
    <rect x="720" y="860" width="8" height="20"/>
    <rect x="740" y="860" width="8" height="20"/>
    <rect x="760" y="860" width="8" height="20"/>
    <rect x="780" y="860" width="8" height="20"/>
    <rect x="800" y="860" width="8" height="20"/>
    <rect x="820" y="860" width="8" height="20"/>
    <rect x="840" y="860" width="8" height="20"/>
    <rect x="860" y="860" width="8" height="20"/>
    <rect x="880" y="860" width="8" height="20"/>
    <rect x="900" y="860" width="8" height="20"/>
    <rect x="920" y="860" width="8" height="20"/>
    <rect x="940" y="860" width="8" height="20"/>
    <rect x="960" y="860" width="8" height="20"/>
    <rect x="980" y="860" width="8" height="20"/>
    <rect x="1000" y="860" width="8" height="20"/>
    <rect x="1020" y="860" width="8" height="20"/>
    <rect x="1040" y="860" width="8" height="20"/>
    <rect x="1060" y="860" width="8" height="20"/>
    <rect x="1080" y="860" width="8" height="20"/>
    <rect x="1100" y="860" width="8" height="20"/>
    <rect x="1120" y="860" width="8" height="20"/>
    <rect x="1140" y="860" width="8" height="20"/>
    <rect x="1160" y="860" width="8" height="20"/>
    <rect x="1180" y="860" width="8" height="20"/>
    <rect x="1200" y="860" width="8" height="20"/>
    <rect x="1220" y="860" width="8" height="20"/>
    <rect x="1240" y="860" width="8" height="20"/>
    <rect x="1260" y="860" width="8" height="20"/>
    <rect x="1280" y="860" width="8" height="20"/>
    <rect x="1300" y="860" width="8" height="20"/>
    <rect x="1320" y="860" width="8" height="20"/>
    <rect x="1340" y="860" width="8" height="20"/>
    <rect x="1360" y="860" width="8" height="20"/>
    <rect x="1380" y="860" width="8" height="20"/>
    <rect x="1400" y="860" width="8" height="20"/>
    <rect x="1420" y="860" width="8" height="20"/>
    <rect x="1440" y="860" width="8" height="20"/>
    <rect x="1460" y="860" width="8" height="20"/>
    <rect x="1480" y="860" width="8" height="20"/>
    <rect x="1500" y="860" width="8" height="20"/>
    <rect x="1520" y="860" width="8" height="20"/>
    <rect x="1540" y="860" width="8" height="20"/>
    <rect x="1560" y="860" width="8" height="20"/>
    <rect x="1580" y="860" width="8" height="20"/>
    <rect x="1600" y="860" width="8" height="20"/>
    <rect x="1620" y="860" width="8" height="20"/>
    <rect x="1640" y="860" width="8" height="20"/>
    <rect x="1660" y="860" width="8" height="20"/>
    <rect x="1680" y="860" width="8" height="20"/>
    <rect x="1700" y="860" width="8" height="20"/>
    <rect x="1720" y="860" width="8" height="20"/>
    <rect x="1740" y="860" width="8" height="20"/>
    <rect x="1760" y="860" width="8" height="20"/>
    <rect x="1780" y="860" width="8" height="20"/>
    <rect x="1800" y="860" width="8" height="20"/>
    <rect x="1820" y="860" width="8" height="20"/>
    <rect x="1840" y="860" width="8" height="20"/>
    <rect x="1860" y="860" width="8" height="20"/>
    <rect x="1880" y="860" width="8" height="20"/>
    <rect x="1900" y="860" width="8" height="20"/>
  </g>
  
  <!-- Subtle glow effects -->
  <circle cx="960" cy="540" r="300" fill="none" stroke="#ff6b6b" stroke-width="1" opacity="0.1"/>
  <circle cx="960" cy="540" r="200" fill="none" stroke="#ff6b6b" stroke-width="1" opacity="0.05"/>
</svg>
