<svg width="32" height="32" viewBox="0 0 32 32" xmlns="http://www.w3.org/2000/svg">
  <defs>
    <linearGradient id="hair" x1="0%" y1="0%" x2="100%" y2="100%">
      <stop offset="0%" style="stop-color:#8B4513;stop-opacity:1" />
      <stop offset="50%" style="stop-color:#D2691E;stop-opacity:1" />
      <stop offset="100%" style="stop-color:#CD853F;stop-opacity:1" />
    </linearGradient>
    <linearGradient id="skin" x1="0%" y1="0%" x2="100%" y2="100%">
      <stop offset="0%" style="stop-color:#FDBCB4;stop-opacity:1" />
      <stop offset="100%" style="stop-color:#F4A460;stop-opacity:1" />
    </linearGradient>
    <linearGradient id="suit" x1="0%" y1="0%" x2="100%" y2="100%">
      <stop offset="0%" style="stop-color:#2C2C2C;stop-opacity:1" />
      <stop offset="100%" style="stop-color:#1A1A1A;stop-opacity:1" />
    </linearGradient>
    <radialGradient id="eyeGlow" cx="50%" cy="50%" r="50%">
      <stop offset="0%" style="stop-color:#FF0000;stop-opacity:1" />
      <stop offset="70%" style="stop-color:#CC0000;stop-opacity:0.8" />
      <stop offset="100%" style="stop-color:#990000;stop-opacity:0.3" />
    </radialGradient>
  </defs>
  
  <!-- Background -->
  <rect width="32" height="32" fill="#000000"/>
  
  <!-- Hair -->
  <path d="M8 6 Q16 2 24 6 Q26 8 25 12 Q24 16 22 18 Q20 20 18 19 Q16 18 14 19 Q12 20 10 18 Q8 16 7 12 Q6 8 8 6 Z" fill="url(#hair)"/>
  
  <!-- Face -->
  <ellipse cx="16" cy="14" rx="8" ry="10" fill="url(#skin)"/>
  
  <!-- Left eye (glowing red) -->
  <ellipse cx="12" cy="12" rx="2" ry="3" fill="url(#eyeGlow)"/>
  <ellipse cx="12" cy="12" rx="1" ry="2" fill="#FF0000"/>
  <circle cx="12" cy="11" r="0.5" fill="#FFFFFF"/>
  
  <!-- Right eye (normal) -->
  <ellipse cx="20" cy="12" rx="2" ry="3" fill="#000000"/>
  <circle cx="20" cy="11" r="0.5" fill="#FFFFFF"/>
  
  <!-- Mouth (grinning) -->
  <path d="M12 18 Q16 20 20 18" stroke="#000000" stroke-width="1.5" fill="none"/>
  <path d="M13 19 Q16 21 19 19" stroke="#000000" stroke-width="1" fill="none"/>
  
  <!-- Teeth -->
  <rect x="14" y="18" width="1" height="2" fill="#FFFFFF"/>
  <rect x="15.5" y="18" width="1" height="2" fill="#FFFFFF"/>
  <rect x="17" y="18" width="1" height="2" fill="#FFFFFF"/>
  
  <!-- Suit jacket -->
  <rect x="10" y="20" width="12" height="8" fill="url(#suit)"/>
  <rect x="11" y="21" width="10" height="6" fill="#FFFFFF" opacity="0.1"/>
  
  <!-- Tie -->
  <rect x="15" y="22" width="2" height="6" fill="#000000"/>
  <polygon points="15,22 16,20 17,22" fill="#000000"/>
  
  <!-- Glow effect around left eye -->
  <circle cx="12" cy="12" r="4" fill="none" stroke="#FF0000" stroke-width="0.5" opacity="0.6"/>
  <circle cx="12" cy="12" r="6" fill="none" stroke="#FF0000" stroke-width="0.3" opacity="0.3"/>
</svg>